<svg width="205" height="77" viewBox="0 0 205 77" fill="none" xmlns="http://www.w3.org/2000/svg">
<path d="M72.5589 75.5196C72.8041 75.5208 73.0492 75.522 73.3018 75.5232C73.6862 75.5277 73.6862 75.5277 74.0783 75.5323C74.3394 75.5342 74.6005 75.5358 74.8617 75.5373C75.501 75.5415 76.1402 75.5475 76.7794 75.5549C76.7794 75.6145 76.7794 75.6741 76.7794 75.7356C75.037 75.7356 73.2946 75.7356 71.4994 75.7356C71.4994 75.8548 71.4994 75.974 71.4994 76.0968C70.4285 77 70.4285 77 69.9349 77C70.064 76.7616 70.1931 76.5231 70.326 76.2775C70.4551 76.2775 70.5842 76.2775 70.7172 76.2775C70.7172 76.1582 70.7172 76.039 70.7172 75.9162C71.4186 75.4843 71.727 75.5127 72.5589 75.5196Z" fill="#F1F5F9"/>
<path d="M70.7172 75.9162C70.9753 75.9758 71.2334 76.0354 71.4994 76.0968C70.3749 77 70.3749 77 69.9349 77C70.064 76.7616 70.1931 76.5231 70.326 76.2775C70.4551 76.2775 70.5842 76.2775 70.7172 76.2775C70.7172 76.1583 70.7172 76.039 70.7172 75.9162Z" fill="#F1F5F9"/>
<path d="M70.8308 0.148383C70.9763 0.148025 71.1219 0.147667 71.2718 0.147299C71.7499 0.146604 72.228 0.148611 72.7061 0.150729C73.0399 0.150954 73.3737 0.151039 73.7074 0.150991C74.4056 0.151285 75.1038 0.152842 75.802 0.155375C76.696 0.158579 77.59 0.159297 78.484 0.159154C79.1727 0.159205 79.8614 0.16024 80.5502 0.161604C80.8798 0.162203 81.2094 0.162575 81.539 0.162715C81.9998 0.163124 82.4606 0.164776 82.9214 0.166784C83.1248 0.166656 83.1248 0.166656 83.3322 0.166525C84.0324 0.170977 84.68 0.221327 85.3611 0.382584C85.3611 0.506947 85.3611 0.63131 85.3611 0.759441C85.6901 0.794783 85.6901 0.794783 86.0257 0.830838C86.9086 0.938873 87.7664 1.11485 88.6321 1.31295C88.7801 1.34489 88.9281 1.37683 89.0806 1.40974C89.4534 1.49446 89.8219 1.59664 90.1892 1.70158C90.2848 1.88813 90.2848 1.88813 90.3823 2.07844C90.6551 2.21738 90.934 2.34501 91.2151 2.46707C94.0215 3.80286 96.8859 6.36798 98.1073 9.23872C98.1073 9.42527 98.1073 9.61181 98.1073 9.80401C98.2347 9.80401 98.3622 9.80401 98.4935 9.80401C100.732 14.1167 100.237 19.9422 98.8436 24.4308C98.7292 24.7691 98.6135 25.1071 98.4935 25.4436C98.3661 25.4436 98.2386 25.4436 98.1073 25.4436C98.1073 25.6923 98.1073 25.941 98.1073 26.1973C97.9798 26.1973 97.8523 26.1973 97.721 26.1973C97.721 26.446 97.721 26.6947 97.721 26.951C97.5936 26.951 97.4661 26.951 97.3348 26.951C97.283 27.1181 97.2312 27.2852 97.1779 27.4574C96.7839 28.5295 96.2422 29.1832 95.4035 29.9659C95.28 30.0924 95.1566 30.219 95.0293 30.3493C93.5651 31.8367 91.9494 33.1061 89.996 33.9229C89.8049 33.9229 89.6137 33.9229 89.4167 33.9229C89.4167 34.0472 89.4167 34.1716 89.4167 34.2997C89.1618 34.2997 88.9068 34.2997 88.6442 34.2997C88.6442 34.4241 88.6442 34.5484 88.6442 34.6766C88.2781 34.7671 87.912 34.8574 87.5458 34.9474C87.3419 34.9977 87.138 35.048 86.9279 35.0998C86.7295 35.1467 86.5311 35.1936 86.3267 35.2419C86.1885 35.2753 86.0503 35.3088 85.9079 35.3432C85.1834 35.4586 84.4679 35.4581 83.736 35.4577C83.5748 35.4583 83.4136 35.4589 83.2475 35.4596C82.7163 35.4614 82.1852 35.4617 81.654 35.4619C81.2844 35.4625 80.9148 35.4632 80.5452 35.4638C79.7715 35.465 78.9978 35.4653 78.224 35.4652C77.2315 35.4652 76.239 35.4678 75.2464 35.471C74.4837 35.4731 73.7209 35.4735 72.9582 35.4734C72.5921 35.4736 72.226 35.4744 71.86 35.4759C71.3491 35.4777 70.8383 35.4772 70.3275 35.4761C70.1757 35.4771 70.024 35.4782 69.8677 35.4793C69.134 35.4751 68.7989 35.4605 68.173 35.0534C68.1093 34.8669 68.0455 34.6803 67.9799 34.4881C67.8524 34.426 67.725 34.3638 67.5936 34.2997C67.5801 30.0968 67.5699 25.8939 67.5636 21.691C67.5606 19.7394 67.5566 17.7879 67.5499 15.8364C67.5441 14.1354 67.5404 12.4344 67.5391 10.7334C67.5384 9.83279 67.5366 8.93221 67.5324 8.03162C67.5284 7.18361 67.5272 6.33565 67.5281 5.48764C67.5279 5.17674 67.5268 4.86585 67.5246 4.55496C67.5217 4.1296 67.5224 3.70439 67.524 3.27903C67.5234 3.04124 67.5229 2.80346 67.5223 2.55847C67.6068 1.7668 67.794 1.27365 68.173 0.571013C69.0219 0.135074 69.8896 0.14101 70.8308 0.148383Z" fill="#F1F5F9"/>
<path d="M161.838 1.32468C161.838 1.44904 161.838 1.5734 161.838 1.70154C162.093 1.77404 162.093 1.77404 162.354 1.84801C164.075 2.46427 165.723 3.89308 166.86 5.28168C166.86 5.46822 166.86 5.65477 166.86 5.84696C166.987 5.84696 167.114 5.84696 167.246 5.84696C167.523 6.23265 167.523 6.23265 167.825 6.742C167.925 6.90814 168.024 7.07428 168.127 7.24546C168.219 7.40577 168.31 7.56608 168.405 7.73125C168.479 7.84322 168.553 7.9552 168.629 8.07057C168.884 8.72426 168.862 9.38502 168.863 10.0748C168.868 10.2163 168.873 10.3578 168.878 10.5036C168.881 11.2049 168.834 11.6106 168.485 12.2366C167.417 13.1383 166.054 13.081 164.711 13.0897C164.541 13.0959 164.371 13.1021 164.196 13.1085C163.313 13.1156 162.934 13.1085 162.224 12.5538C162.097 12.3926 161.969 12.2313 161.838 12.0651C161.723 11.9446 161.607 11.8242 161.488 11.7C161.181 11.1788 161.218 10.7714 161.259 10.1808C161.131 10.1808 161.004 10.1808 160.873 10.1808C160.873 9.99427 160.873 9.80773 160.873 9.61553C160.586 9.52226 160.586 9.52226 160.293 9.4271C160.23 9.24056 160.166 9.05402 160.1 8.86182C159.78 8.67115 159.458 8.48258 159.135 8.29653C159.135 8.17217 159.135 8.04781 159.135 7.91968C159 7.89466 158.865 7.86964 158.726 7.84386C158.55 7.81059 158.374 7.77731 158.193 7.74302C158.018 7.71023 157.844 7.67744 157.664 7.64366C157.203 7.54282 157.203 7.54282 156.817 7.35439C152.852 7.07787 152.852 7.07787 149.092 8.1081C148.895 8.19081 148.895 8.19081 148.695 8.27519C148.298 8.47249 148.298 8.47249 147.933 9.05025C147.783 9.9309 147.743 10.7965 147.74 11.6882C147.956 11.7699 147.956 11.7699 148.176 11.8531C148.619 12.0304 149.032 12.2232 149.454 12.442C150.156 12.7883 150.84 12.9973 151.603 13.1957C151.937 13.3086 152.271 13.4226 152.605 13.5372C153.655 13.8832 154.715 14.1525 155.791 14.4087C164.628 16.5187 164.628 16.5187 167.632 19.7907C167.799 19.9384 167.967 20.086 168.139 20.2382C169.728 21.9515 169.871 23.7704 169.781 26.0107C169.599 28.7807 168.316 30.9023 166.28 32.7922C164.585 34.119 164.585 34.119 163.576 34.2997C163.576 34.424 163.576 34.5484 163.576 34.6765C163.191 34.8318 162.805 34.9844 162.418 35.1358C162.203 35.2211 161.988 35.3063 161.766 35.3942C159.745 36.0423 157.49 35.869 155.387 35.8834C154.944 35.8875 154.5 35.8939 154.057 35.9027C151.209 35.959 148.829 35.7805 146.195 34.6765C146.195 34.5522 146.195 34.4278 146.195 34.2997C145.988 34.2738 145.988 34.2738 145.777 34.2474C143.636 33.7144 141.791 31.5099 140.601 29.7921C140.402 29.4005 140.402 29.4005 140.402 28.6468C140.274 28.6468 140.147 28.6468 140.015 28.6468C139.593 27.4829 139.577 26.4118 139.593 25.1844C139.593 24.8992 139.593 24.8992 139.593 24.6081C139.602 23.2089 139.602 23.2089 139.822 22.994C140.692 22.9392 141.563 22.9348 142.435 22.928C142.728 22.9249 143.021 22.9197 143.314 22.9125C143.737 22.9022 144.159 22.8981 144.582 22.8953C144.835 22.8916 145.089 22.8879 145.35 22.884C146.002 22.994 146.002 22.994 146.467 23.4434C146.765 23.9208 146.915 24.2896 147.04 24.8311C147.404 26.1157 148.026 27.1221 149.08 27.9755C150.263 28.5646 151.356 28.7038 152.657 28.6969C152.81 28.6972 152.963 28.6976 153.12 28.698C153.441 28.6982 153.762 28.6975 154.083 28.6959C154.569 28.6939 155.056 28.6959 155.542 28.6983C155.856 28.6981 156.17 28.6976 156.484 28.6969C156.627 28.6976 156.77 28.6984 156.917 28.6992C158.241 28.6878 159.633 28.5426 160.764 27.8224C160.887 27.7471 161.011 27.6718 161.137 27.5943C161.69 27.1267 161.82 26.7065 161.918 26.0059C161.938 25.7042 161.938 25.7042 161.959 25.3964C161.981 25.0918 161.981 25.0918 162.003 24.7811C162.012 24.6266 162.022 24.4721 162.031 24.313C161.92 24.2619 161.808 24.2109 161.693 24.1584C161.257 23.9349 160.884 23.6781 160.486 23.3944C158.808 22.3035 156.947 21.9634 154.981 21.6987C154.115 21.5766 153.357 21.3743 152.545 21.0569C152.021 20.861 151.485 20.7386 150.939 20.615C149.885 20.3756 149.885 20.3756 149.671 20.1675C149.379 20.1113 149.085 20.0614 148.79 20.0144C146.33 19.5404 143.771 17.8659 142.14 16.0221C141.972 15.8511 141.805 15.6801 141.633 15.5039C140.466 14.109 139.988 12.4472 139.991 10.6872C139.991 10.447 139.99 10.2068 139.99 9.95927C140.086 7.25233 141.442 5.14062 143.422 3.30023C144.607 2.29892 145.742 1.51311 147.354 1.51311C147.354 1.38874 147.354 1.26438 147.354 1.13625C152.253 -0.656191 156.944 -0.124778 161.838 1.32468Z" fill="#F1F5F9"/>
<path d="M119.713 0.135266C119.96 0.13223 120.207 0.129194 120.462 0.126066C120.819 0.125884 120.819 0.125884 121.184 0.125698C121.402 0.125136 121.62 0.124574 121.844 0.123996C122.513 0.202647 122.868 0.370564 123.406 0.759436C124.406 2.03008 125.001 3.48022 125.579 4.96375C125.631 5.09682 125.684 5.2299 125.737 5.36701C125.952 5.9293 126.11 6.37256 126.11 6.97758C126.238 6.97758 126.365 6.97758 126.496 6.97758C126.568 7.21076 126.568 7.21076 126.641 7.44865C126.82 7.93784 127.001 8.34827 127.245 8.80298C127.798 9.8542 128.428 11.0586 128.428 12.2536C128.555 12.2536 128.683 12.2536 128.814 12.2536C128.878 12.8132 128.941 13.3728 129.007 13.9494C129.134 13.9494 129.262 13.9494 129.393 13.9494C130.059 14.7554 130.101 15.5923 130.166 16.5874C130.293 16.5874 130.421 16.5874 130.552 16.5874C130.682 16.9207 130.81 17.2545 130.938 17.5885C131.01 17.7743 131.082 17.9601 131.156 18.1515C131.325 18.6601 131.325 18.6601 131.325 19.2254C131.452 19.2254 131.579 19.2254 131.711 19.2254C131.902 20.0649 131.902 20.0649 132.097 20.9213C132.224 20.9213 132.352 20.9213 132.483 20.9213C132.531 21.0767 132.579 21.2322 132.628 21.3924C132.812 21.8947 133 22.306 133.256 22.7702C133.68 23.5695 133.869 24.3729 134.028 25.2551C134.156 25.2551 134.283 25.2551 134.415 25.2551C134.477 25.421 134.54 25.5869 134.605 25.7579C134.69 25.9767 134.774 26.1956 134.861 26.421C134.985 26.7457 134.985 26.7457 135.112 27.0769C135.354 27.6431 135.636 28.1234 135.959 28.6469C136.133 29.0478 136.297 29.4525 136.454 29.8599C136.534 30.0656 136.614 30.2713 136.697 30.4833C136.772 30.6856 136.847 30.888 136.925 31.0964C136.997 31.2822 137.07 31.4681 137.144 31.6595C137.331 32.2933 137.369 32.8402 137.372 33.4989C137.375 33.7117 137.378 33.9244 137.382 34.1437C137.358 34.3195 137.335 34.4954 137.311 34.6766C136.732 35.0534 136.732 35.0534 136.153 35.0534C136.153 35.1778 136.153 35.3022 136.153 35.4303C135.073 35.5781 134.008 35.645 132.918 35.6658C132.676 35.6707 132.434 35.6755 132.185 35.6805C131.437 35.6112 131.123 35.5265 130.552 35.0534C130.212 34.5821 129.947 34.0843 129.683 33.5696C129.607 33.4263 129.532 33.2831 129.454 33.1355C128.922 32.1075 128.467 31.0646 128.066 29.9806C127.765 29.1795 127.413 28.402 127.06 27.6215C126.883 27.1394 126.883 27.1394 126.883 26.3857C126.745 26.3914 126.607 26.3971 126.465 26.403C121.84 26.5875 117.22 26.5949 112.591 26.5741C112.554 26.7264 112.517 26.8787 112.478 27.0357C112.428 27.237 112.378 27.4384 112.326 27.6458C112.277 27.8448 112.227 28.0437 112.177 28.2487C112.027 28.7828 111.868 29.2768 111.626 29.7774C111.498 29.8396 111.371 29.9018 111.24 29.9659C111.045 30.4706 110.867 30.9725 110.696 31.4851C110.178 32.9794 109.638 34.3999 108.343 35.4303C107.771 35.5278 107.771 35.5278 107.112 35.5304C106.874 35.5314 106.636 35.5323 106.39 35.5333C106.142 35.5304 105.894 35.5275 105.639 35.5245C105.267 35.5289 105.267 35.5289 104.888 35.5333C104.65 35.5324 104.412 35.5314 104.166 35.5304C103.84 35.5291 103.84 35.5291 103.507 35.5278C102.816 35.4099 102.587 35.2113 102.163 34.6766C101.807 33.028 102.31 31.0163 103.128 29.5684C103.323 29.2086 103.47 28.8532 103.611 28.4702C103.804 27.9487 104.016 27.4439 104.251 26.9392C104.609 26.1671 104.933 25.3834 105.253 24.5956C105.678 23.5473 106.125 22.5125 106.605 21.4866C106.732 21.4866 106.86 21.4866 106.991 21.4866C107.008 21.3816 107.024 21.2767 107.041 21.1686C107.227 20.1866 107.523 19.5014 108.092 18.6778C108.855 17.476 109.257 16.0428 109.695 14.7031C109.822 14.7031 109.95 14.7031 110.081 14.7031C110.1 14.5889 110.118 14.4746 110.138 14.3568C110.36 13.1387 110.737 12.0738 111.252 10.9464C111.391 10.6346 111.53 10.3227 111.669 10.0108C111.73 9.8758 111.791 9.74077 111.854 9.60164C111.986 9.29801 112.098 8.98627 112.205 8.67344C112.333 8.61125 112.46 8.54907 112.591 8.48501C112.754 8.14144 112.754 8.14144 112.883 7.72467C112.934 7.57225 112.985 7.41983 113.037 7.2628C113.089 7.10261 113.141 6.94242 113.195 6.77737C113.248 6.61645 113.302 6.45553 113.357 6.28974C113.489 5.89131 113.62 5.49251 113.75 5.09329C113.878 5.09329 114.005 5.09329 114.136 5.09329C114.155 4.98836 114.174 4.88343 114.194 4.77532C114.409 3.70248 114.759 2.84954 115.295 1.89001C115.423 1.89001 115.55 1.89001 115.681 1.89001C115.701 1.76953 115.721 1.64905 115.742 1.52493C115.786 1.39668 115.829 1.26843 115.875 1.13629C116.066 1.07411 116.257 1.01193 116.454 0.947864C116.454 0.823502 116.454 0.699139 116.454 0.571007C117.428 -0.0627216 118.569 0.132473 119.713 0.135266Z" fill="#F1F5F9"/>
<path d="M199.885 0.10727C200.219 0.108363 200.219 0.108363 200.559 0.109478C200.79 0.114093 201.021 0.118708 201.26 0.123463C201.609 0.123827 201.609 0.123827 201.965 0.124199C203.692 0.141218 203.692 0.141218 204.132 0.570981C204.532 0.692051 204.532 0.692051 204.905 0.759409C204.923 5.11949 204.937 9.47958 204.945 13.8397C204.949 15.8641 204.954 17.8885 204.963 19.9129C204.971 21.677 204.976 23.4412 204.978 25.2053C204.979 26.1397 204.981 27.0741 204.987 28.0085C204.992 28.8876 204.994 29.7666 204.992 30.6457C204.993 30.9687 204.994 31.2917 204.997 31.6147C205.001 32.0551 205 32.4953 204.998 32.9357C204.999 33.1824 204.999 33.429 205 33.6831C204.89 34.3989 204.722 34.6281 204.132 35.0534C204.005 35.0534 203.878 35.0534 203.746 35.0534C203.746 35.1778 203.746 35.3021 203.746 35.4303C202.925 35.4521 202.105 35.4655 201.284 35.4774C201.051 35.4837 200.818 35.49 200.578 35.4965C200.354 35.4989 200.13 35.5014 199.899 35.5039C199.693 35.5078 199.486 35.5118 199.274 35.5158C198.567 35.4057 198.385 35.2269 197.952 34.6766C197.86 34.0709 197.86 34.0709 197.865 33.3456C197.865 33.211 197.865 33.0765 197.865 32.9378C197.865 32.5035 197.871 32.0695 197.877 31.6352C197.878 31.3666 197.879 31.0979 197.879 30.8293C197.883 29.8349 197.894 28.8404 197.904 27.846C197.92 25.623 197.936 23.4 197.952 21.1097C192.79 21.1097 187.628 21.1097 182.309 21.1097C182.348 25.4082 182.348 25.4082 182.396 29.7065C182.401 30.5395 182.401 30.5395 182.402 30.93C182.403 31.2016 182.406 31.4732 182.411 31.7448C182.418 32.1573 182.419 32.5694 182.419 32.9819C182.422 33.3303 182.422 33.3303 182.426 33.6857C182.277 34.4708 181.966 34.7418 181.344 35.2418C180.472 35.7358 179.549 35.6813 178.568 35.6776C178.329 35.6821 178.329 35.6821 178.085 35.6868C177.033 35.6876 176.277 35.567 175.357 35.0534C174.883 34.3952 174.922 33.7638 174.92 32.9778C174.92 32.8447 174.919 32.7117 174.918 32.5745C174.916 32.1286 174.917 31.6826 174.918 31.2367C174.917 30.9169 174.916 30.5972 174.915 30.2774C174.912 29.4089 174.912 28.5403 174.912 27.6718C174.913 26.9469 174.912 26.222 174.911 25.4971C174.909 23.7871 174.909 22.0772 174.91 20.3672C174.911 18.6026 174.909 16.838 174.904 15.0735C174.901 13.5588 174.9 12.0442 174.9 10.5295C174.901 9.62473 174.9 8.71996 174.898 7.81517C174.895 6.96437 174.896 6.11362 174.898 5.26282C174.899 4.95055 174.898 4.63828 174.896 4.32601C174.894 3.89973 174.896 3.4736 174.898 3.04733C174.898 2.80879 174.898 2.57024 174.898 2.32447C174.977 1.65157 175.139 1.29842 175.55 0.759409C176.497 0.0972491 177.819 0.313022 178.93 0.311892C179.288 0.304969 179.288 0.304969 179.653 0.297907C179.882 0.297178 180.112 0.296449 180.348 0.295699C180.557 0.29415 180.767 0.292602 180.983 0.291006C181.689 0.407622 181.875 0.587028 182.309 1.13627C182.402 1.72049 182.402 1.72049 182.397 2.41534C182.397 2.5443 182.397 2.67327 182.397 2.80614C182.397 3.22218 182.391 3.63797 182.385 4.05397C182.384 4.31137 182.383 4.56877 182.383 4.82617C182.378 5.77886 182.368 6.73151 182.358 7.68416C182.334 10.8787 182.334 10.8787 182.309 14.1378C187.472 14.1378 192.634 14.1378 197.952 14.1378C197.922 9.8309 197.922 9.8309 197.883 5.52404C197.879 4.69019 197.879 4.69019 197.879 4.29956C197.878 4.02731 197.875 3.75506 197.871 3.48283C197.865 3.06988 197.864 2.65718 197.865 2.2442C197.863 2.01156 197.861 1.77891 197.86 1.53922C198.046 0.349419 198.743 0.0985971 199.885 0.10727Z" fill="#F1F5F9"/>
<path d="M74.9321 6.97757C84.2021 6.97757 84.2021 6.97757 85.9402 7.166C86.0358 7.35254 86.0358 7.35254 86.1333 7.54286C86.3798 7.61947 86.6302 7.68411 86.8817 7.74306C88.5343 8.24791 89.9745 9.56786 90.9614 10.9346C91.0989 11.2451 91.2299 11.5586 91.3477 11.8767C91.5389 12.0633 91.5389 12.0633 91.7339 12.2536C91.7581 12.7482 91.7581 12.7482 91.7339 13.1957C91.8614 13.1957 91.9889 13.1957 92.1202 13.1957C92.1202 13.6932 92.1202 14.1906 92.1202 14.7031C92.2477 14.7031 92.3751 14.7031 92.5064 14.7031C92.9364 17.129 93.1688 20.3174 92.1202 22.6171C91.929 22.7104 91.929 22.7104 91.7339 22.8056C91.5928 23.2416 91.4633 23.6814 91.3477 24.1246C91.2202 24.1246 91.0928 24.1246 90.9614 24.1246C90.9077 24.3111 90.9077 24.3111 90.8528 24.5014C90.0124 26.2127 88.4311 27.2812 86.7127 28.0816C86.2639 28.1557 85.813 28.2188 85.3608 28.27C85.1918 28.3353 85.0228 28.4007 84.8486 28.468C83.8332 28.7489 82.8257 28.6932 81.776 28.6822C81.5665 28.6821 81.357 28.6819 81.1412 28.6818C79.0649 28.6714 77.0109 28.555 74.9321 28.4584C74.9321 21.3697 74.9321 14.2811 74.9321 6.97757Z" fill="#0F172A"/>
<path d="M37.8179 0.0781872C38.0695 0.0771416 38.3211 0.0760961 38.5804 0.0750188C39.2691 0.0723376 39.9577 0.075545 40.6464 0.0799717C41.3673 0.0837635 42.0882 0.0826528 42.8091 0.0822125C44.0192 0.0822226 45.2293 0.0859426 46.4394 0.0919882C47.8389 0.0989457 49.2384 0.100594 50.6379 0.0992808C51.9843 0.0980934 53.3306 0.100118 54.677 0.103797C55.2501 0.105338 55.8231 0.105847 56.3962 0.10555C57.1957 0.105354 57.995 0.109905 58.7945 0.11499C59.0329 0.114437 59.2713 0.113885 59.5169 0.113316C59.8426 0.116524 59.8426 0.116524 60.1749 0.119797C60.364 0.1205 60.553 0.121202 60.7478 0.121926C61.2205 0.194115 61.2205 0.194115 61.5707 0.44843C62.1307 1.20816 61.8895 2.45375 61.8844 3.35029C61.8883 3.58833 61.8921 3.82637 61.8961 4.07162C61.8959 4.41848 61.8959 4.41848 61.8957 4.77234C61.8961 4.98287 61.8964 5.1934 61.8968 5.41031C61.7734 6.20669 61.4497 6.66519 61.0274 7.3544C57.6666 7.372 54.3058 7.3853 50.945 7.39345C49.3845 7.39734 47.824 7.40264 46.2636 7.41126C44.9036 7.41877 43.5436 7.42363 42.1836 7.42532C41.4634 7.4263 40.7433 7.42861 40.023 7.43409C39.2193 7.44015 38.4158 7.44032 37.612 7.43997C37.2532 7.44403 37.2532 7.44403 36.8872 7.44818C36.6683 7.44714 36.4495 7.44611 36.2241 7.44504C36.034 7.44573 35.8438 7.44643 35.648 7.44714C35.0037 7.32745 34.7751 7.09942 34.3763 6.60069C34.2363 5.82332 34.2571 5.04934 34.2649 4.26092C34.2676 3.88186 34.261 3.50368 34.2537 3.12469C34.254 2.88459 34.2544 2.64449 34.2548 2.39711C34.2547 2.17791 34.2545 1.95871 34.2544 1.73287C34.3771 1.13227 34.5204 0.810154 34.9795 0.390628C35.8244 -0.0675455 36.8791 0.0683133 37.8179 0.0781872Z" fill="#F1F5F9"/>
<path d="M37.1538 28.6204C37.3598 28.6193 37.5659 28.6182 37.7781 28.6171C38.0022 28.6169 38.2262 28.6167 38.4571 28.6165C38.6946 28.6156 38.9321 28.6146 39.1768 28.6137C39.8268 28.6114 40.4768 28.61 41.1268 28.6091C41.5332 28.6086 41.9396 28.6078 42.3461 28.607C43.6187 28.6044 44.8914 28.6026 46.164 28.6018C47.6314 28.601 49.0986 28.5977 50.5659 28.5922C51.7016 28.5882 52.8372 28.5863 53.9729 28.586C54.6506 28.5858 55.3282 28.5847 56.0059 28.5813C56.7618 28.5776 57.5176 28.5785 58.2734 28.5797C58.4971 28.578 58.7208 28.5762 58.9512 28.5744C60.0603 28.5801 60.8632 28.6075 61.7999 29.2121C61.8143 29.9765 61.8248 30.7409 61.8317 31.5054C61.8346 31.7653 61.8386 32.0252 61.8436 32.2851C61.8507 32.6592 61.8536 33.0334 61.8565 33.4076C61.861 33.7451 61.861 33.7451 61.8657 34.0894C61.7932 34.7361 61.6911 34.9785 61.2205 35.4303C60.6025 35.8012 60.1288 35.8551 59.4085 35.8575C59.0921 35.8599 59.0921 35.8599 58.7694 35.8624C58.5389 35.8622 58.3084 35.8621 58.071 35.8619C57.7058 35.8638 57.7058 35.8638 57.3333 35.8657C56.6661 35.869 55.999 35.8699 55.3318 35.8702C54.9149 35.8704 54.498 35.8712 54.081 35.8722C52.6261 35.8757 51.1712 35.8773 49.7163 35.877C48.3606 35.8767 47.0049 35.8807 45.6492 35.8867C44.4847 35.8916 43.3202 35.8936 42.1557 35.8934C41.4604 35.8933 40.7652 35.8944 40.0699 35.8984C39.2945 35.9027 38.5193 35.901 37.7439 35.8987C37.3988 35.9019 37.3988 35.9019 37.0467 35.9051C35.4954 35.8935 35.4954 35.8935 34.7166 35.4554C34.283 34.9433 34.2543 34.6624 34.2548 34.0024C34.2544 33.799 34.254 33.5957 34.2537 33.3863C34.2583 33.1747 34.2629 32.9632 34.2676 32.7452C34.2655 32.5365 34.2634 32.3279 34.2612 32.1129C34.273 30.8272 34.386 29.9025 35.1487 28.8353C35.8155 28.6391 36.4608 28.6226 37.1538 28.6204Z" fill="#F1F5F9"/>
<path d="M37.5812 14.3958C37.8077 14.3944 38.0342 14.3931 38.2676 14.3917C39.0164 14.3885 39.765 14.3922 40.5139 14.3962C41.0341 14.3965 41.5543 14.3956 42.0745 14.3948C43.1649 14.394 44.2551 14.3969 45.3455 14.4022C46.605 14.4082 47.8644 14.4082 49.1239 14.405C50.3369 14.402 51.5498 14.4033 52.7628 14.4065C53.2784 14.4078 53.7939 14.4074 54.3095 14.4062C55.0299 14.4052 55.75 14.409 56.4704 14.4142C56.6839 14.4129 56.8974 14.4117 57.1174 14.4104C58.556 14.428 58.556 14.428 59.3251 14.8615C59.8103 15.4251 59.7946 15.7942 59.7901 16.5241C59.7896 16.7665 59.7891 17.0089 59.7886 17.2587C59.7844 17.447 59.7844 17.447 59.7801 17.6392C59.772 18.0244 59.7722 18.4089 59.7735 18.7941C59.7592 20.1828 59.7592 20.1828 59.6754 20.7328C59.096 21.1097 59.096 21.1097 58.5167 21.1097C58.4529 21.2962 58.3892 21.4828 58.3235 21.675C55.4512 21.6882 52.5788 21.6982 49.7064 21.7043C48.3726 21.7072 47.0388 21.7111 45.7051 21.7176C44.4178 21.7239 43.1306 21.7271 41.8433 21.7286C41.3523 21.7296 40.8613 21.7317 40.3703 21.7347C39.6823 21.7388 38.9944 21.7394 38.3065 21.7391C38.1036 21.7412 37.9008 21.7432 37.6919 21.7453C36.4047 21.74 35.3316 21.6651 34.3761 20.7328C34.2763 19.869 34.2956 18.9989 34.2916 18.1302C34.2853 17.8881 34.2789 17.6461 34.2724 17.3967C34.2703 17.0467 34.2703 17.0467 34.2682 16.6897C34.2657 16.476 34.2631 16.2623 34.2604 16.0421C34.609 14.2792 36.0753 14.3802 37.5812 14.3958Z" fill="#F1F5F9"/>
<path d="M119.351 10.5577C119.81 10.5695 119.81 10.5695 120.317 10.7461C120.773 11.4365 120.896 11.8009 120.896 12.6304C121.023 12.6304 121.151 12.6304 121.282 12.6304C121.371 12.842 121.459 13.0535 121.551 13.2715C121.608 13.4074 121.665 13.5433 121.724 13.6833C121.848 13.9797 121.973 14.2762 122.096 14.5729C122.409 15.3176 122.735 16.0446 123.105 16.7641C123.407 17.5296 123.407 17.5296 123.407 19.4138C120.985 19.4138 118.563 19.4138 116.068 19.4138C116.27 17.643 116.27 17.643 116.647 16.7758C116.702 16.5134 116.754 16.2503 116.804 15.9868C117.025 14.9643 117.496 14.1105 117.999 13.1957C118.141 12.9254 118.282 12.6546 118.422 12.3831C118.483 12.2631 118.545 12.1431 118.609 12.0195C118.813 11.6032 118.984 11.1756 119.158 10.7461C119.222 10.684 119.285 10.6218 119.351 10.5577Z" fill="#0F172A"/>
<path d="M175.55 0.759399C175.741 0.821581 175.932 0.883762 176.129 0.947828C176.035 1.01358 175.941 1.07934 175.844 1.14709C175.401 1.69897 175.479 2.15298 175.48 2.84726C175.48 2.98393 175.479 3.12061 175.479 3.26143C175.478 3.72062 175.481 4.1797 175.484 4.63888C175.484 4.96755 175.484 5.29622 175.484 5.62489C175.484 6.51832 175.487 7.41171 175.491 8.30514C175.495 9.23838 175.495 10.1716 175.496 11.1049C175.498 12.8726 175.503 14.6404 175.508 16.4082C175.515 18.4205 175.518 20.4328 175.521 22.4451C175.527 26.5851 175.537 30.725 175.55 34.865C175.666 34.8922 175.781 34.9194 175.9 34.9474C176.238 35.0321 176.571 35.1342 176.902 35.2418C177.174 35.2691 177.446 35.2882 177.719 35.3014C177.874 35.3093 178.029 35.3172 178.189 35.3254C178.35 35.3328 178.51 35.3402 178.676 35.3478C178.921 35.36 178.921 35.36 179.171 35.3725C179.573 35.3924 179.976 35.4114 180.378 35.4302C180.378 35.4924 180.378 35.5546 180.378 35.6187C179.795 35.634 179.212 35.6452 178.628 35.654C178.464 35.6587 178.301 35.6635 178.132 35.6684C177.057 35.6805 176.296 35.5834 175.357 35.0534C174.884 34.3948 174.922 33.764 174.92 32.9778C174.92 32.8447 174.919 32.7116 174.918 32.5745C174.916 32.1285 174.917 31.6826 174.918 31.2367C174.917 30.9169 174.916 30.5972 174.915 30.2774C174.912 29.4089 174.912 28.5403 174.912 27.6718C174.913 26.9469 174.912 26.222 174.911 25.4971C174.909 23.7871 174.909 22.0771 174.91 20.3671C174.911 18.6026 174.909 16.838 174.904 15.0734C174.901 13.5588 174.9 12.0442 174.9 10.5295C174.901 9.62471 174.9 8.71995 174.898 7.81516C174.895 6.96436 174.896 6.1136 174.898 5.26281C174.899 4.95054 174.898 4.63827 174.896 4.326C174.894 3.89972 174.896 3.47359 174.898 3.04732C174.898 2.80878 174.898 2.57023 174.898 2.32446C174.976 1.65809 175.152 1.29892 175.55 0.759399Z" fill="#F1F5F9"/>
<path d="M116.454 16.9642C116.518 16.9642 116.582 16.9642 116.647 16.9642C116.647 17.586 116.647 18.2079 116.647 18.8485C118.878 18.9107 121.108 18.9729 123.407 19.0369C123.407 19.1613 123.407 19.2857 123.407 19.4138C120.985 19.4138 118.563 19.4138 116.068 19.4138C116.261 17.7179 116.261 17.7179 116.454 16.9642Z" fill="#F1F5F9"/>
<path d="M118.273 0.157348C118.515 0.158562 118.757 0.159777 119.007 0.161028C119.386 0.165764 119.386 0.165764 119.773 0.170596C120.031 0.172487 120.289 0.174207 120.547 0.175749C121.178 0.180196 121.81 0.186401 122.441 0.19415C122.441 0.256331 122.441 0.318513 122.441 0.382579C120.72 0.382579 118.999 0.382579 117.227 0.382579C117.227 0.506941 117.227 0.631304 117.227 0.759436C116.169 1.70158 116.169 1.70158 115.682 1.70158C115.809 1.45285 115.936 1.20413 116.068 0.947864C116.195 0.947864 116.323 0.947864 116.454 0.947864C116.454 0.823501 116.454 0.699139 116.454 0.571007C117.147 0.120451 117.451 0.150094 118.273 0.157348Z" fill="#F1F5F9"/>
<path d="M0 14.1378C1.18817 14.1194 1.18817 14.1194 1.54499 14.1378C1.60873 14.2 1.67246 14.2622 1.73812 14.3263C2.17976 14.3794 2.6214 14.4106 3.06509 14.4433C3.47624 14.5147 3.47624 14.5147 3.86249 14.8915C3.36327 14.8751 2.86471 14.855 2.36577 14.8327C2.15441 14.8263 2.15441 14.8263 1.93879 14.8198C1.11902 14.7798 0.596009 14.7086 0 14.1378Z" fill="#F1F5F9"/>
<path d="M175.55 0.759399C175.741 0.821581 175.932 0.883762 176.129 0.947828C176.036 1.02211 175.942 1.09639 175.846 1.17292C175.465 1.61123 175.469 1.86439 175.451 2.43391C175.444 2.61062 175.438 2.78732 175.431 2.96939C175.426 3.15338 175.422 3.33737 175.417 3.52694C175.411 3.71312 175.404 3.8993 175.397 4.09112C175.381 4.55077 175.368 5.01034 175.357 5.47011C175.293 5.47011 175.23 5.47011 175.164 5.47011C175.153 4.75567 175.146 4.04124 175.14 3.32674C175.136 3.12319 175.133 2.91964 175.13 2.70993C175.129 2.51561 175.127 2.3213 175.126 2.12109C175.124 1.9415 175.122 1.76191 175.12 1.57687C175.164 1.13626 175.164 1.13626 175.55 0.759399Z" fill="#F1F5F9"/>
<path d="M143.878 3.02057C143.878 3.58585 143.878 3.58585 143.54 3.97081C143.396 4.10416 143.253 4.23751 143.105 4.3749C142.962 4.50971 142.818 4.64451 142.671 4.78341C142.503 4.93679 142.503 4.93679 142.333 5.09328C142.205 5.0311 142.078 4.96892 141.946 4.90485C142.195 4.62551 142.445 4.34693 142.695 4.0687C142.834 3.91349 142.972 3.75828 143.116 3.59837C143.491 3.209 143.491 3.209 143.878 3.02057Z" fill="#F1F5F9"/>
<path d="M116.454 16.9642C116.518 16.9642 116.582 16.9642 116.647 16.9642C116.647 17.586 116.647 18.2079 116.647 18.8485C116.456 18.8485 116.265 18.8485 116.068 18.8485C116.195 18.2267 116.323 17.6049 116.454 16.9642Z" fill="#F1F5F9"/>
<path d="M5.02129 26.5742C5.14875 26.6363 5.27621 26.6985 5.40753 26.7626C5.09546 27.1472 4.773 27.524 4.44191 27.8932C4.31445 27.8932 4.18699 27.8932 4.05566 27.8932C4.30537 27.3497 4.56926 26.9751 5.02129 26.5742Z" fill="#F1F5F9"/>
<path d="M116.454 0.570984C116.709 0.633165 116.964 0.695347 117.227 0.759412C116.116 1.70156 116.116 1.70156 115.682 1.70156C115.809 1.45283 115.936 1.2041 116.068 0.947841C116.195 0.947841 116.323 0.947841 116.454 0.947841C116.454 0.823478 116.454 0.699115 116.454 0.570984Z" fill="#F1F5F9"/>
</svg>
